<?xml version="1.0" encoding="UTF-8"?>
<svg id="Layer_2" data-name="Layer 2" xmlns="http://www.w3.org/2000/svg" viewBox="0 0 23.06 25.71">
  <defs>
    <style>
      .cls-1 {
        fill: #fff;
      }
    </style>
  </defs>
  <g id="design">
    <path class="cls-1" d="M22.79,10.88L12.19,.27s-.09-.08-.14-.12c-.01,0-.03-.02-.04-.02-.04-.02-.07-.04-.12-.06-.02,0-.04-.01-.06-.02-.04-.01-.07-.03-.11-.03-.06-.01-.12-.02-.18-.02s-.12,0-.18,.02c-.04,0-.08,.02-.11,.03-.02,0-.04,.01-.06,.02-.04,.02-.08,.04-.12,.06-.01,0-.03,.01-.04,.02-.05,.03-.1,.07-.14,.12L.27,10.88c-.36,.36-.36,.95,0,1.31,.36,.36,.95,.36,1.31,0L10.6,3.17V24.79c0,.51,.42,.93,.93,.93s.93-.42,.93-.93V3.17l9.02,9.02c.18,.18,.42,.27,.66,.27s.47-.09,.66-.27c.36-.36,.36-.95,0-1.31Z"/>
  </g>
</svg>