<?xml version="1.0" encoding="UTF-8"?>
<svg id="Layer_2" data-name="Layer 2" xmlns="http://www.w3.org/2000/svg" viewBox="0 0 195 195">
  <defs>
    <style>
      .cls-1 {
        fill: #fff;
      }

      .cls-2 {
        fill: none;
      }
    </style>
  </defs>
  <g id="design">
    <g>
      <g>
        <g>
          <path class="cls-1" d="M52.25,143.96c-1.08,1.21-2.43,2.39-4.03,3.53-1.6,1.14-3.41,2.08-5.43,2.81-2.01,.74-4.18,1.11-6.5,1.11-3.21,0-6.03-.52-8.47-1.56-2.44-1.04-4.48-2.52-6.13-4.45-1.65-1.93-2.89-4.24-3.72-6.92-.83-2.69-1.25-5.67-1.25-8.94,0-4.22,.75-7.97,2.24-11.23,1.49-3.26,3.66-5.82,6.5-7.67,2.84-1.85,6.28-2.78,10.33-2.78,3.29,0,6.34,.67,9.15,2.01,2.81,1.34,5.05,3.44,6.74,6.31-.74,.8-1.7,1.7-2.89,2.68-1.19,.99-2.4,1.92-3.62,2.81-1.22,.89-2.28,1.61-3.17,2.18-.04-.17-.21-.51-.49-1.02-.28-.51-.67-1.06-1.15-1.64-.49-.59-1.07-1.09-1.76-1.51s-1.45-.63-2.29-.63c-1.04,0-1.92,.27-2.63,.8-.71,.53-1.29,1.25-1.74,2.14-.44,.9-.77,1.9-.98,3.01-.21,1.11-.31,2.23-.31,3.38,0,1.3,.08,2.55,.23,3.74,.15,1.19,.42,2.25,.8,3.19,.38,.93,.93,1.66,1.64,2.19,.72,.53,1.62,.8,2.73,.8,.76,0,1.54-.13,2.34-.39,.8-.26,1.61-.66,2.42-1.19,.81-.53,1.6-1.19,2.36-1.97,1,.69,2.09,1.57,3.27,2.63,1.18,1.06,2.3,2.17,3.35,3.33,1.05,1.16,1.87,2.25,2.45,3.27Z"/>
          <path class="cls-1" d="M63.23,117.73c-2.28,0-4.22-.65-5.83-1.95-1.61-1.3-2.42-3.06-2.42-5.27,0-1.47,.38-2.74,1.14-3.8,.76-1.06,1.74-1.88,2.94-2.45,1.2-.57,2.46-.86,3.79-.86,2.12,0,3.91,.67,5.35,2.02,1.44,1.34,2.16,3.09,2.16,5.23,0,2.01-.69,3.7-2.06,5.05s-3.06,2.03-5.05,2.03Zm4.74,33.12c-.39,.02-1.23,.08-2.52,.16-1.29,.09-2.66,.13-4.11,.13-1,0-2.02-.03-3.07-.08-1.05-.05-2.1-.15-3.14-.28,.09-.56,.21-1.7,.36-3.41,.15-1.71,.31-3.73,.47-6.06,.16-2.33,.32-4.74,.47-7.23,.15-2.49,.27-4.83,.36-7.02,.09-2.19,.13-3.95,.13-5.3,.56-.04,1.37-.09,2.42-.13s2.18-.09,3.4-.13c1.21-.04,2.37-.08,3.48-.11,1.11-.03,1.98-.05,2.63-.05,.15,.74,.27,1.94,.36,3.62,.09,1.68,.13,3.55,.13,5.61,0,1.95-.03,3.97-.1,6.06-.07,2.09-.16,4.1-.28,6.01-.12,1.92-.27,3.6-.44,5.05-.17,1.45-.36,2.5-.55,3.15Z"/>
          <path class="cls-1" d="M86.4,151.44c-.61,0-1.5-.02-2.68-.05-1.18-.03-2.46-.07-3.85-.11-1.39-.04-2.73-.09-4.03-.13-1.3-.04-2.38-.09-3.25-.13,.26-1.47,.61-3.27,1.04-5.38,.43-2.11,.93-4.42,1.49-6.94,.56-2.51,1.16-5.12,1.8-7.82,.64-2.7,1.29-5.38,1.97-8.06,.67-2.68,1.33-5.24,1.98-7.69s1.26-4.66,1.82-6.63c2.77-.35,5.3-.61,7.59-.78,2.29-.17,4.47-.26,6.55-.26,1.34,0,2.66,.04,3.96,.11s2.61,.2,3.93,.37c.43,1.91,.87,4.04,1.32,6.39,.44,2.35,.9,5.15,1.36,8.4s.94,7.15,1.41,11.7c.48,4.55,.96,9.98,1.46,16.28-.87,.11-2.13,.22-3.79,.34-1.66,.12-3.4,.21-5.22,.28-1.82,.07-3.42,.1-4.81,.1-.04-.63-.08-1.27-.1-1.92-.02-.65-.04-1.32-.07-2.01-.02-.69-.04-1.4-.05-2.11-.01-.72-.02-1.45-.02-2.19v-2.26c-.69,.02-1.38,.04-2.05,.07s-1.32,.05-1.93,.08-1.19,.07-1.71,.11c-.52,.04-.99,.09-1.4,.15-.41,.05-.74,.1-.97,.15-.28,1.21-.54,2.44-.78,3.67-.24,1.24-.44,2.39-.62,3.48-.17,1.08-.3,2.01-.39,2.79Zm3.41-21.26c.3-.04,.87-.1,1.69-.16,.82-.06,1.67-.12,2.55-.16,.88-.04,1.52-.06,1.93-.06-.02-.32-.05-1.05-.08-2.18-.03-1.13-.07-2.36-.11-3.7-.04-1.34-.08-2.55-.1-3.61-.02-1.06-.03-1.7-.03-1.92-.26,0-.67,.02-1.22,.05-.55,.03-1.08,.07-1.59,.1-.51,.03-.86,.06-1.06,.08-.13,.67-.3,1.57-.5,2.68-.21,1.12-.41,2.28-.62,3.49-.21,1.21-.39,2.31-.55,3.28s-.27,1.68-.31,2.11Z"/>
          <path class="cls-1" d="M133.79,152.61c-4.77,0-8.65-.97-11.65-2.92-3-1.95-5.21-4.61-6.61-7.99-1.41-3.38-2.11-7.21-2.11-11.51s.82-8.06,2.45-11.39c1.64-3.33,3.97-5.95,7-7.87,3.03-1.92,6.67-2.88,10.92-2.88,3.53,0,6.58,.55,9.15,1.64,2.57,1.09,4.68,2.63,6.34,4.6,1.66,1.97,2.89,4.29,3.69,6.96,.8,2.67,1.2,5.58,1.2,8.74,0,2.93-.39,5.74-1.17,8.45-.78,2.71-1.99,5.12-3.62,7.25-1.64,2.12-3.74,3.81-6.32,5.05-2.58,1.25-5.67,1.87-9.26,1.87Zm.23-13.03c1.76,0,3.27-.52,4.53-1.58,1.27-1.05,2.24-2.42,2.91-4.11,.67-1.69,1.01-3.48,1.01-5.36,0-1.34-.14-2.62-.42-3.82s-.73-2.26-1.33-3.17c-.61-.91-1.41-1.62-2.42-2.14-1.01-.52-2.25-.78-3.72-.78s-2.87,.51-4.13,1.53c-1.26,1.02-2.26,2.38-3.02,4.08-.76,1.7-1.14,3.57-1.14,5.61,0,1.91,.23,3.59,.68,5.05,.45,1.46,1.25,2.61,2.37,3.44s2.69,1.25,4.68,1.25Z"/>
          <path class="cls-1" d="M166.87,151.79c-2.23,0-4.12-.7-5.67-2.1-1.55-1.4-2.32-3.18-2.32-5.35s.76-3.8,2.29-5.04c1.53-1.23,3.39-1.85,5.57-1.85s4.01,.64,5.54,1.92c1.53,1.28,2.29,2.88,2.29,4.81,0,2.34-.74,4.19-2.21,5.56-1.47,1.36-3.3,2.05-5.49,2.05Zm5.04-16.09c-.8,0-1.9-.02-3.28-.06-1.39-.04-2.78-.11-4.19-.19s-2.58-.18-3.51-.29c-.17-2.04-.34-4.09-.49-6.18-.15-2.08-.29-4.18-.41-6.29-.12-2.11-.22-4.25-.31-6.42s-.15-4.35-.19-6.55c-.04-2.2-.06-4.41-.06-6.65l15.11,.62c-.09,.72-.22,2.02-.41,3.92-.18,1.9-.39,4.11-.62,6.65-.23,2.54-.46,5.16-.68,7.87-.23,2.71-.43,5.26-.6,7.65-.17,2.39-.29,4.37-.36,5.93Z"/>
        </g>
        <g>
          <path class="cls-1" d="M119.26,101.13c10.27-3.5,19.08-10.22,25.44-18.24,3.39-3.91,4.7-8.85,5.04-13.74,.53-9.8-1.89-19.85-6.55-28.68-1.79-3.06-3.83-6.47-7.24-8.04-3.73-1.29-6.02,2.42-6.72,5.5-1.54,7.14-.21,14.71,1.35,21.79,0,0-.51-.71-.51-.71,.65,.41,1.44,.95,2.12,1.15,.12,.05,.22,.02,.02,.04-.09,.01-.28,.09-.41,.21-.12,.11-.16,.23-.17,.24-.24-1.69-1.39-3.5-2.39-5.21-1.86-3.02-4.01-5.95-6.27-8.79-2.27-2.84-4.67-5.59-7.21-8.22-3.78-3.8-7.76-7.67-12.69-10.11-2.12-.93-3.68-1.36-5.32-.37-2.62,1.24-3.16,3.64-2.21,6.23,2.51,6.34,8.17,11.51,13.46,16.11,0,0,.2,.19,.2,.19-.08-.1-.2-.19-.5-.35-.65-.22-1.3-.35-2.12,.38-.7,1.09-.31,.75-.44,1.03,0,.2,.02,.23,.02,.25,0,.04,.04,.16,.04,.17l-.09-.19c-1.49-2.76-3.28-5.42-5.11-8.01-1.99-2.8-4.11-5.52-6.39-8.1-3.37-3.69-7-7.47-11.77-9.45-1.8-.67-3.48-.88-5.05-.21-.08,.05-.08,.05-.13,.15-.38,1.8,.9,3.98,1.81,5.8,5.08,8.79,12.13,16.74,19.06,24.43,0,0-3.22,2.1-3.22,2.1-4.79-6.75-13.07-18.92-22.33-19.88-1.29-.08-2.53,.19-3.69,.73l.15-.08c-2.09,1.26-.01,4.48,.95,6.17,3.4,5.33,8.15,9.98,12.2,15.06,1.22,1.59,2.51,3.17,3.12,5.14,1.23,3.51,1.02,7.36,.32,10.89,0-.24-.3-.69-.71-.88-.3-.14-.49-.14-.54-.14-.07,0-.05,0-.03,0,2.09-.57,4.08-1.56,6.15-2.38,1.23-.54,3.49-1.4,4.52-2.02-.12,.08-.22,.22-.34,.44-.09,.21-.22,.54-.07,1.06,.14,.47,.53,.76,.68,.85,.26,.15,.4,.18,.56,.21,.02,0-.04,0-.1,0-6.49,.5-13.01,1.35-19.59,.98-1.82-.08-3.79-.22-5.57-.72-3.46-.97-6.14-2.5-9.62-2.81-3.07-.22-6.81-.69-9.68,.33-.04,.02,0,.02,.04-.06,.05-.08,.08-.23,.07-.29,.1,.25,.81,.93,1.26,1.25,2.51,1.86,5.63,3.35,8.56,4.73,6.22,2.87,12.41,5.91,18.24,9.51,4.38,2.75,8.78,5.72,12.01,9.69,1.15,1.53,2.41,3.39,2.08,5.36-.82,5.4-2.36,12.37-4.31,18.11-4.92,14.82-13.99,29.39-28.79,37.81-4.96,2.8-10.25,4.65-16.05,4.96-3.86,.12-12.61,.44-14.17-3.39-.5-2.17,2.42-2.73,4.13-2.11,.21,.06,.33,.26,.26,.45-.07,.19-.29,.29-.5,.24-1.24-.35-3.28-.23-3,1.21,1.57,3.14,9.92,2.61,13.18,2.44,8.93-.65,16.8-5.22,23.1-10.74,9.67-8.54,15.67-19.9,19.4-31.53,1.91-5.9,3.15-11.97,4.05-18.07-.03,.12-.01,.06-.02,.06-.09-1.23-.89-2.29-1.67-3.31-3.04-3.62-7.21-6.36-11.39-8.92-5.71-3.44-11.81-6.36-18.02-9.14-3.63-1.72-7.36-3.29-10.37-5.96-1-.89-1.93-2.57-1.04-3.89,2.03-2.97,9.68-2.17,13.06-1.95,3.53,.26,7.04,1.97,10.2,2.89,4.86,1.04,9.95,.62,14.93,.35,2.47-.18,5.27-.5,7.77-.73,.79-.05,1.66-.18,2.54,.06,1.3,.34,1.82,1.88,.92,2.83-.93,.93-2.29,1.34-3.33,1.85,0,0-2.38,1.01-2.38,1.01-2.02,.82-4.01,1.76-6.17,2.45-1.06,.35-2.53,.47-3.41-.51-.93-1.07-.47-2.4-.3-3.5,.53-2.74,.39-5.39-.47-8.02-.45-1.45-1.58-2.8-2.57-4.08-1.99-2.47-4.21-4.9-6.36-7.4-3.22-3.94-6.95-7.78-8.32-12.82-1.59-7.27,8.32-8.58,13.76-5.83,3.27,1.45,5.87,3.54,8.24,5.72,4.64,4.37,8.4,9.33,11.86,14.46,0,0-3.22,2.1-3.22,2.1-4.8-5.27-9.36-10.65-13.6-16.32-2.1-2.85-4.13-5.75-5.85-8.9-1.04-2.01-2.22-4.31-2.26-6.76-.04-2.18,1.4-3.8,3.87-4.28,8.07-1.6,15.29,6.21,19.84,11.15,4.41,5.09,8.28,10.5,11.56,16.23,.23,.44,.54,.96,.64,1.46,0,.03,.02,.07,.02,.29-.12,.29,.27-.03-.44,1.07-.94,.81-1.73,.64-2.48,.19-.19-.15-.27-.22-.36-.33l.2,.19c-5.82-5.07-14.43-13.02-14.96-20.62-.24-3.41,2.53-6.42,6.03-7.48,2.5-.72,4.86,.07,6.95,1.03,10.31,5.34,21.31,19.21,27.11,28.59,.97,1.69,1.89,3.26,2.45,5.16,.14,.68,.31,1.14,.09,1.95-.71,2.09-3.23,1.37-4.58,.49-.6-.35-1.16-.73-1.71-1.11,0,0-.1-.43-.1-.43-1.53-7.44-4.88-25.37,3.97-29.61,10.23-4.1,17,17.08,18.16,23.48,1.66,8.6,2.26,18.09-2.22,26.11-5.02,7.55-12.44,13.77-20.88,18.12-.15,.21-9.02,4.19-7.7,2.77h0Z"/>
          <path class="cls-1" d="M116.22,83.82c-7.61,0-15.24-3.14-15.68-3.32-.6-.25-.86-.9-.59-1.44,.28-.54,.99-.78,1.59-.53,.14,.06,14.49,5.95,22.35,1.4,3.45-2,5.2-5.82,5.2-11.37,0-.6,.54-1.08,1.2-1.08s1.2,.49,1.2,1.08c0,6.34-2.12,10.78-6.31,13.2-2.64,1.52-5.8,2.07-8.96,2.07Z"/>
        </g>
      </g>
      <rect class="cls-2" width="195" height="195"/>
    </g>
  </g>
</svg>