<svg width="300" height="300" viewBox="0 0 300 300" fill="none" xmlns="http://www.w3.org/2000/svg">
<path d="M80.3802 221.48C78.7102 223.35 76.6502 225.15 74.1802 226.9C71.7102 228.65 68.9302 230.09 65.8302 231.23C62.7302 232.36 59.4002 232.93 55.8302 232.93C50.9002 232.93 46.5602 232.13 42.8102 230.53C39.0602 228.93 35.9202 226.65 33.3902 223.68C30.8602 220.71 28.9502 217.16 27.6602 213.03C26.3802 208.9 25.7402 204.31 25.7402 199.28C25.7402 192.78 26.8902 187.02 29.1902 182.01C31.4902 177 34.8202 173.06 39.1902 170.21C43.5602 167.36 48.8602 165.94 55.0902 165.94C60.1602 165.94 64.8502 166.97 69.1702 169.04C73.4902 171.11 76.9502 174.34 79.5502 178.74C78.4202 179.97 76.9302 181.35 75.1002 182.86C73.2702 184.38 71.4102 185.82 69.5302 187.19C67.6502 188.56 66.0202 189.67 64.6502 190.54C64.5802 190.27 64.3302 189.75 63.9002 188.96C63.4702 188.18 62.8702 187.34 62.1202 186.44C61.3702 185.54 60.4702 184.77 59.4202 184.11C58.3702 183.45 57.2002 183.14 55.9002 183.14C54.3002 183.14 52.9502 183.55 51.8502 184.36C50.7502 185.18 49.8602 186.28 49.1802 187.66C48.5002 189.04 48.0002 190.58 47.6802 192.28C47.3602 193.98 47.2102 195.71 47.2102 197.48C47.2102 199.48 47.3302 201.4 47.5602 203.23C47.7902 205.06 48.2002 206.7 48.7902 208.13C49.3702 209.56 50.2102 210.69 51.3102 211.51C52.4102 212.33 53.8102 212.73 55.5102 212.73C56.6802 212.73 57.8802 212.53 59.1102 212.13C60.3402 211.73 61.5902 211.12 62.8402 210.3C64.0902 209.48 65.3002 208.47 66.4602 207.27C67.9902 208.34 69.6702 209.69 71.4802 211.32C73.3002 212.95 75.0102 214.66 76.6302 216.44C78.2502 218.22 79.5102 219.9 80.4102 221.47L80.3802 221.48Z" fill="#FFA500"/>
<path d="M97.2801 181.13C93.7801 181.13 90.7901 180.13 88.3001 178.13C85.8101 176.13 84.5801 173.43 84.5801 170.03C84.5801 167.76 85.1601 165.81 86.3301 164.18C87.5001 162.55 89.0001 161.29 90.8601 160.4C92.7101 159.52 94.6501 159.07 96.6801 159.07C99.9501 159.07 102.69 160.1 104.91 162.17C107.13 164.24 108.24 166.92 108.24 170.22C108.24 173.32 107.18 175.91 105.06 178C102.94 180.09 100.35 181.12 97.2901 181.12L97.2801 181.13ZM104.58 232.08C103.98 232.11 102.69 232.2 100.7 232.33C98.7201 232.46 96.6101 232.53 94.3701 232.53C92.8401 232.53 91.2601 232.49 89.6501 232.41C88.0301 232.33 86.4201 232.19 84.8201 231.99C84.9501 231.12 85.1401 229.37 85.3701 226.74C85.6001 224.11 85.8501 221 86.1001 217.41C86.3501 213.83 86.5901 210.12 86.8201 206.29C87.0501 202.46 87.2401 198.86 87.3701 195.49C87.5001 192.12 87.5701 189.41 87.5701 187.34C88.4401 187.27 89.6801 187.21 91.2901 187.14C92.9001 187.07 94.6501 187.01 96.5201 186.94C98.3901 186.87 100.17 186.82 101.87 186.77C103.57 186.72 104.92 186.69 105.92 186.69C106.15 187.82 106.34 189.68 106.47 192.27C106.6 194.85 106.67 197.73 106.67 200.89C106.67 203.89 106.62 207 106.52 210.21C106.42 213.43 106.28 216.51 106.1 219.46C105.92 222.41 105.69 225 105.42 227.24C105.15 229.47 104.87 231.09 104.57 232.09L104.58 232.08Z" fill="#FFA500"/>
<path d="M132.929 232.98C131.999 232.98 130.619 232.95 128.809 232.9C126.999 232.85 125.019 232.79 122.889 232.73C120.759 232.66 118.689 232.6 116.689 232.53C114.689 232.46 113.019 232.4 111.689 232.33C112.089 230.06 112.619 227.31 113.289 224.06C113.959 220.81 114.719 217.25 115.589 213.39C116.459 209.52 117.379 205.51 118.369 201.36C119.349 197.21 120.359 193.08 121.389 188.96C122.419 184.84 123.439 180.9 124.439 177.14C125.439 173.38 126.369 169.97 127.239 166.94C131.509 166.41 135.399 166.01 138.909 165.74C142.429 165.47 145.789 165.34 148.989 165.34C151.059 165.34 153.089 165.4 155.089 165.52C157.089 165.64 159.109 165.83 161.139 166.09C161.809 169.02 162.479 172.3 163.169 175.92C163.849 179.54 164.549 183.84 165.269 188.84C165.989 193.84 166.709 199.84 167.439 206.84C168.169 213.84 168.919 222.19 169.689 231.89C168.359 232.06 166.419 232.23 163.869 232.41C161.319 232.59 158.639 232.74 155.839 232.83C153.039 232.93 150.569 232.98 148.439 232.98C148.369 232.01 148.319 231.03 148.289 230.03C148.259 229.03 148.219 228 148.189 226.93C148.159 225.86 148.129 224.78 148.119 223.68C148.099 222.58 148.089 221.45 148.089 220.3V216.82C147.019 216.85 145.969 216.89 144.939 216.92C143.909 216.95 142.919 217 141.969 217.04C141.019 217.08 140.139 217.15 139.349 217.21C138.549 217.28 137.829 217.35 137.199 217.43C136.569 217.51 136.069 217.59 135.699 217.66C135.269 219.53 134.869 221.41 134.499 223.31C134.129 225.21 133.819 226.99 133.549 228.66C133.279 230.33 133.079 231.76 132.949 232.96L132.929 232.98ZM138.179 200.28C138.649 200.21 139.509 200.13 140.779 200.03C142.049 199.93 143.359 199.85 144.699 199.78C146.049 199.71 147.039 199.68 147.669 199.68C147.639 199.18 147.599 198.06 147.549 196.33C147.499 194.6 147.439 192.7 147.379 190.63C147.309 188.56 147.259 186.71 147.229 185.08C147.199 183.45 147.179 182.46 147.179 182.13C146.779 182.13 146.159 182.15 145.299 182.2C144.449 182.25 143.629 182.3 142.849 182.35C142.069 182.4 141.519 182.44 141.229 182.47C141.029 183.5 140.769 184.88 140.449 186.59C140.129 188.31 139.819 190.1 139.499 191.97C139.179 193.84 138.899 195.52 138.649 197.02C138.399 198.52 138.239 199.6 138.169 200.27L138.179 200.28Z" fill="#FFA500"/>
<path d="M205.83 234.78C198.5 234.78 192.52 233.28 187.9 230.28C183.28 227.28 179.89 223.18 177.73 217.98C175.57 212.78 174.48 206.88 174.48 200.28C174.48 193.68 175.74 187.87 178.26 182.76C180.78 177.64 184.37 173.61 189.03 170.66C193.69 167.71 199.3 166.24 205.83 166.24C211.26 166.24 215.95 167.08 219.9 168.77C223.85 170.45 227.1 172.81 229.65 175.84C232.2 178.87 234.09 182.44 235.33 186.54C236.56 190.64 237.18 195.12 237.18 199.99C237.18 204.49 236.58 208.82 235.38 212.99C234.18 217.16 232.32 220.87 229.8 224.14C227.28 227.41 224.04 230 220.08 231.91C216.11 233.83 211.36 234.79 205.83 234.79V234.78ZM206.18 214.73C208.88 214.73 211.21 213.92 213.15 212.31C215.1 210.69 216.59 208.58 217.63 205.98C218.66 203.38 219.18 200.63 219.18 197.73C219.18 195.66 218.96 193.7 218.53 191.85C218.1 190 217.41 188.38 216.48 186.97C215.55 185.57 214.31 184.47 212.76 183.67C211.21 182.87 209.3 182.47 207.03 182.47C204.76 182.47 202.61 183.25 200.68 184.82C198.75 186.39 197.2 188.48 196.03 191.1C194.86 193.72 194.28 196.59 194.28 199.72C194.28 202.65 194.63 205.25 195.33 207.5C196.03 209.75 197.25 211.52 198.98 212.8C200.71 214.08 203.11 214.72 206.18 214.72V214.73Z" fill="#FFA500"/>
<path d="M256.72 233.53C253.29 233.53 250.38 232.45 248 230.31C245.62 228.16 244.42 225.42 244.42 222.08C244.42 218.74 245.59 216.23 247.95 214.33C250.3 212.43 253.16 211.48 256.53 211.48C259.9 211.48 262.7 212.46 265.05 214.43C267.4 216.4 268.58 218.86 268.58 221.83C268.58 225.43 267.45 228.28 265.18 230.38C262.91 232.48 260.1 233.53 256.73 233.53H256.72ZM264.47 208.78C263.24 208.78 261.55 208.75 259.42 208.68C257.29 208.61 255.14 208.51 252.97 208.38C250.8 208.25 249 208.1 247.57 207.93C247.3 204.8 247.05 201.63 246.82 198.43C246.59 195.23 246.38 192.01 246.2 188.76C246.02 185.51 245.86 182.22 245.72 178.88C245.58 175.54 245.49 172.19 245.42 168.8C245.35 165.42 245.32 162.01 245.32 158.57L268.57 159.52C268.44 160.62 268.23 162.63 267.95 165.55C267.67 168.47 267.35 171.88 267 175.77C266.65 179.67 266.3 183.7 265.95 187.87C265.6 192.04 265.29 195.96 265.03 199.64C264.76 203.32 264.58 206.37 264.48 208.76L264.47 208.78Z" fill="#FFA500"/>
<path d="M183.481 155.58C199.291 150.19 212.841 139.85 222.631 127.51C227.851 121.49 229.861 113.9 230.381 106.37C231.201 91.2902 227.481 75.8202 220.301 62.2502C217.551 57.5502 214.411 52.3002 209.151 49.8702C203.411 47.8802 199.901 53.6002 198.811 58.3402C196.451 69.3302 198.491 80.9702 200.891 91.8702L200.111 90.7702C201.111 91.4002 202.321 92.2302 203.371 92.5402C203.551 92.6102 203.701 92.5602 203.401 92.5902C203.261 92.6102 202.961 92.7302 202.771 92.9102C202.581 93.0802 202.531 93.2602 202.511 93.2902C202.141 90.6902 200.371 87.9102 198.841 85.2702C195.981 80.6202 192.671 76.1202 189.201 71.7502C185.711 67.3902 182.021 63.1502 178.111 59.1102C172.301 53.2602 166.171 47.3102 158.591 43.5502C155.331 42.1102 152.931 41.4602 150.401 42.9802C146.361 44.8902 145.551 48.5802 147.001 52.5602C150.861 62.3202 159.571 70.2602 167.711 77.3402L168.021 77.6302C167.901 77.4802 167.721 77.3302 167.261 77.1002C166.251 76.7602 165.261 76.5702 163.991 77.6802C162.911 79.3602 163.511 78.8302 163.321 79.2702C163.321 79.5802 163.351 79.6202 163.351 79.6502C163.351 79.7102 163.411 79.8902 163.421 79.9102L163.281 79.6202C160.981 75.3702 158.231 71.2902 155.421 67.2902C152.361 62.9902 149.101 58.8002 145.591 54.8302C140.401 49.1602 134.821 43.3402 127.481 40.3002C124.711 39.2602 122.131 38.9502 119.711 39.9802C119.591 40.0602 119.591 40.0502 119.511 40.2002C118.931 42.9602 120.891 46.3202 122.301 49.1302C130.121 62.6502 140.961 74.8802 151.621 86.7102L146.661 89.9302C139.281 79.5402 126.551 60.8202 112.311 59.3402C110.321 59.2102 108.421 59.6402 106.631 60.4602L106.861 60.3402C103.651 62.2902 106.841 67.2302 108.321 69.8402C113.561 78.0502 120.861 85.1902 127.091 93.0002C128.971 95.4402 130.951 97.8802 131.891 100.91C133.781 106.31 133.461 112.23 132.381 117.66C132.381 117.29 131.921 116.6 131.291 116.31C130.841 116.09 130.541 116.1 130.451 116.09C130.351 116.09 130.371 116.09 130.411 116.09C133.631 115.21 136.691 113.68 139.871 112.43C141.761 111.6 145.231 110.28 146.821 109.33C146.641 109.46 146.481 109.67 146.301 110.01C146.161 110.33 145.961 110.83 146.201 111.64C146.421 112.36 147.021 112.81 147.251 112.95C147.641 113.18 147.871 113.23 148.101 113.27C148.141 113.27 148.041 113.27 147.951 113.27C137.961 114.04 127.931 115.34 117.821 114.78C115.011 114.65 111.991 114.44 109.251 113.67C103.921 112.18 99.8106 109.83 94.4406 109.34C89.7106 109 83.9706 108.28 79.5406 109.85C79.4906 109.89 79.5306 109.88 79.6006 109.75C79.6806 109.63 79.7306 109.39 79.7106 109.31C79.8706 109.69 80.9606 110.74 81.6506 111.24C85.5106 114.1 90.3106 116.39 94.8206 118.52C104.381 122.93 113.901 127.61 122.881 133.14C129.621 137.37 136.391 141.95 141.361 148.04C143.121 150.4 145.071 153.26 144.561 156.29C143.311 164.59 140.931 175.32 137.921 184.15C130.351 206.95 116.391 229.37 93.6206 242.32C85.9906 246.62 77.8506 249.47 68.9306 249.95C62.9906 250.14 49.5406 250.63 47.1206 244.74C46.3406 241.4 50.8506 240.55 53.4706 241.49C53.7906 241.58 53.9706 241.89 53.8706 242.19C53.7706 242.48 53.4206 242.64 53.1006 242.56C51.1906 242.02 48.0506 242.21 48.4806 244.42C50.9006 249.25 63.7406 248.44 68.7606 248.17C82.5006 247.17 94.6006 240.14 104.311 231.65C119.191 218.51 128.421 201.04 134.151 183.15C137.081 174.07 139.001 164.74 140.391 155.35C140.341 155.53 140.371 155.44 140.361 155.45C140.221 153.56 139.001 151.93 137.801 150.36C133.121 144.79 126.711 140.58 120.281 136.64C111.491 131.35 102.111 126.86 92.5506 122.58C86.9706 119.94 81.2206 117.51 76.5906 113.41C75.0506 112.05 73.6206 109.45 74.9906 107.43C78.1106 102.85 89.8806 104.09 95.0806 104.44C100.521 104.84 105.921 107.48 110.781 108.88C118.251 110.48 126.081 109.84 133.751 109.42C137.561 109.14 141.861 108.66 145.701 108.29C146.911 108.22 148.261 108.01 149.611 108.38C151.611 108.91 152.411 111.28 151.031 112.73C149.591 114.16 147.511 114.79 145.911 115.57L142.241 117.12C139.131 118.39 136.071 119.82 132.741 120.89C131.111 121.43 128.841 121.61 127.491 120.11C126.061 118.47 126.771 116.42 127.021 114.72C127.831 110.51 127.611 106.43 126.291 102.38C125.601 100.15 123.861 98.0702 122.341 96.1002C119.281 92.3002 115.861 88.5602 112.551 84.7102C107.591 78.6502 101.861 72.7402 99.7606 64.9902C97.3106 53.8002 112.561 51.7802 120.931 56.0302C125.961 58.2702 129.961 61.4802 133.611 64.8302C140.751 71.5602 146.531 79.1902 151.861 87.0702L146.901 90.2902C139.521 82.1802 132.501 73.9102 125.981 65.1802C122.751 60.8002 119.631 56.3402 116.981 51.4802C115.371 48.3902 113.571 44.8402 113.501 41.0802C113.451 37.7302 115.651 35.2302 119.451 34.5002C131.871 32.0402 142.971 44.0502 149.971 51.6602C156.761 59.4902 162.711 67.8102 167.751 76.6302C168.111 77.3102 168.581 78.1102 168.731 78.8702C168.731 78.9202 168.761 78.9802 168.771 79.3102C168.581 79.7602 169.181 79.2602 168.091 80.9502C166.641 82.2002 165.421 81.9302 164.271 81.2502C163.981 81.0302 163.861 80.9102 163.721 80.7502L164.031 81.0402C155.081 73.2402 141.831 61.0102 141.011 49.3102C140.641 44.0702 144.891 39.4302 150.281 37.8002C154.121 36.6902 157.751 37.9002 160.971 39.3902C176.841 47.6102 193.761 68.9402 202.681 83.3702C204.171 85.9602 205.591 88.3802 206.461 91.3102C206.671 92.3602 206.941 93.0602 206.601 94.3102C205.511 97.5202 201.631 96.4102 199.551 95.0602C198.631 94.5202 197.761 93.9402 196.921 93.3502L196.771 92.6902C194.421 81.2402 189.261 53.6602 202.881 47.1402C218.611 40.8302 229.031 73.4102 230.821 83.2702C233.371 96.5002 234.301 111.1 227.411 123.43C219.691 135.05 208.261 144.62 195.281 151.31C195.051 151.63 181.401 157.76 183.431 155.57L183.481 155.58Z" fill="#FFA500"/>
<path d="M178.8 128.95C167.1 128.95 155.36 124.13 154.67 123.84C153.74 123.45 153.34 122.46 153.77 121.63C154.2 120.79 155.29 120.43 156.22 120.81C156.44 120.9 178.51 129.96 190.61 122.96C195.92 119.89 198.61 114 198.61 105.47C198.61 104.55 199.44 103.8 200.46 103.8C201.48 103.8 202.31 104.55 202.31 105.47C202.31 115.22 199.04 122.05 192.6 125.77C188.54 128.12 183.68 128.95 178.81 128.95H178.8Z" fill="#FFA500"/>
</svg>
